<?xml version="1.0" encoding="utf-8"?>
<svg xmlns="http://www.w3.org/2000/svg" xmlns:xlink="http://www.w3.org/1999/xlink" viewBox="0 0 702 398" style="background: transparent; shape-rendering: auto;" fill="CurrentColor">
  <path></path>
  <g class="ldl-layer" transform="matrix(1, 0, 0, 1, -18, -22)">
    <g class="ldl-ani">
      <g>
        <g class="ldl-layer" transform="matrix(1, 0, 0, 1, 0, 0)">
          <g class="ldl-ani">
            <path style="perspective-origin: 351px 199px;"></path>
          </g>
        </g>
        <g class="ldl-layer" transform="matrix(1 0 0 1 0 0) matrix(1 0 0 1 0 0)">
          <g class="ldl-ani">
            <g transform="matrix(0.8963577747344971 -0.15157943964004517 0.1542235165834427 0.9119934439659119 40.3116455078125 300) matrix(1 0 0 1 0 0)" class="ldl-layer" style="user-select: auto; perspective-origin: 351px 199px;">
              <g class="ldl-layer">
                <g class="ldl-ani">
                  <g style="transform-origin: 0px 199px 0px; animation: 1s linear 0s infinite normal forwards running bounceAlt-20fd2d5e-0f1f-43ba-93e9-6b0873447cf6; user-select: auto; perspective-origin: 351px 199px;" class="ldl-ani">
                    <g class="ldl-layer">
                      <g class="ldl-ani">
                        <text class="papecaster">Papecaster</text>
                      </g>
                    </g>
                  </g>
                </g>
              </g>
            </g>
          </g>
        </g>
        <g class="ldl-layer" transform="matrix(1, 0, 0, 1, 0, 0)">
          <g class="ldl-ani">
            <style data-anikit="" id="damage-35a60f95-8d87-468b-94e0-b2c1712e3603" style="display: none; user-select: auto; perspective-origin: 50% 50%;">
              @keyframes damage-35a60f95-8d87-468b-94e0-b2c1712e3603
              {
                0% {
                  animation-timing-function: cubic-bezier(0.1916,0.3481,0.5313,2.0622);
                  opacity: 1;
                }
                21% {
                  animation-timing-function: cubic-bezier(0.0461,0.1237,0.4559,1.8579);
                  opacity: 0.42200000000000004;
                }
                29% {
                  animation-timing-function: cubic-bezier(0.0468,0.1254,0.4564,1.8559);
                  opacity: 1.462;
                }
                37% {
                  animation-timing-function: cubic-bezier(0.0479,0.1283,0.457,1.856);
                  opacity: 0.63;
                }
                45% {
                  animation-timing-function: cubic-bezier(0.0487,0.1306,0.457,1.8506);
                  opacity: 1.296;
                }
                53% {
                  animation-timing-function: cubic-bezier(0.0515,0.1383,0.4591,1.8571);
                  opacity: 0.763;
                }
                61% {
                  animation-timing-function: cubic-bezier(0.0556,0.1484,0.4608,1.846);
                  opacity: 1.189;
                }
                69% {
                  animation-timing-function: cubic-bezier(0.0595,0.1602,0.4632,1.8456);
                  opacity: 0.848;
                }
                77% {
                  animation-timing-function: cubic-bezier(0.0689,0.1849,0.4698,1.8391);
                  opacity: 1.121;
                }
                85% {
                  animation-timing-function: cubic-bezier(0.0794,0.2133,0.4765,1.8226);
                  opacity: 0.903;
                }
                93% {
                  animation-timing-function: cubic-bezier(0.1486,0.2692,0.2335,0.855);
                  opacity: 1.078;
                }
                100% {
                  opacity: 0.893;
                }
              }
            </style>
          </g>
        </g>
        <g class="ldl-layer" transform="matrix(1, 0, 0, 1, 0, 0)">
          <g class="ldl-ani">
            <style data-anikit="" id="bounceAlt-20fd2d5e-0f1f-43ba-93e9-6b0873447cf6" style="display: none; user-select: auto; perspective-origin: 50% 50%;">
            @keyframes bounceAlt-20fd2d5e-0f1f-43ba-93e9-6b0873447cf6
            {
              0% {
                animation-timing-function: cubic-bezier(0.1348,0.3256,0.2495,0.8687);
                transform: translate(0, 0px);
              }
              51% {
                animation-timing-function: cubic-bezier(0.7426,0.1782,0.8523,0.6514);
                transform: translate(0, -14px);
              }
              100% {
                transform: translate(0, 0px);
              }
            }
            </style>
          </g>
        </g>
        <g class="ldl-layer" transform="matrix(1, 0, 0, 1, 0, 0)">
          <g class="ldl-ani">
            <style data-anikit="" id="damage-807e8f23-fdb0-4a69-9bdd-459fbb895250" style="display: none; user-select: auto; perspective-origin: 50% 50%;">
            @keyframes damage-807e8f23-fdb0-4a69-9bdd-459fbb895250
            {
              0% {
                animation-timing-function: cubic-bezier(0.1916,0.3481,0.5313,2.0622);
                opacity: 1;
              }
              21% {
                animation-timing-function: cubic-bezier(0.0461,0.1237,0.4559,1.8579);
                opacity: 0.42200000000000004;
              }
              29% {
                animation-timing-function: cubic-bezier(0.0468,0.1254,0.4564,1.8559);
                opacity: 1.462;
              }
              37% {
                animation-timing-function: cubic-bezier(0.0479,0.1283,0.457,1.856);
                opacity: 0.63;
              }
              45% {
                animation-timing-function: cubic-bezier(0.0487,0.1306,0.457,1.8506);
                opacity: 1.296;
              }
              53% {
                animation-timing-function: cubic-bezier(0.0515,0.1383,0.4591,1.8571);
                opacity: 0.763;
              }
              61% {
                animation-timing-function: cubic-bezier(0.0556,0.1484,0.4608,1.846);
                opacity: 1.189;
              }
              69% {
                animation-timing-function: cubic-bezier(0.0595,0.1602,0.4632,1.8456);
                opacity: 0.848;
              }
              77% {
                animation-timing-function: cubic-bezier(0.0689,0.1849,0.4698,1.8391);
                opacity: 1.121;
              }
              85% {
                animation-timing-function: cubic-bezier(0.0794,0.2133,0.4765,1.8226);
                opacity: 0.903;
              }
              93% {
                animation-timing-function: cubic-bezier(0.1486,0.2692,0.2335,0.855);
                opacity: 1.078;
              }
              100% {
                opacity: 0.893;
              }
            }
          </style>
        </g>
      </g>
      <g class="ldl-layer" transform="matrix(1, 0, 0, 1, 0, 0)">
        <g class="ldl-ani">
          <style>
          .papecaster{
            font-size: 200px;
            font-family: Brush Script MT;
          }
          </style>
        </g>
      </g>
    </g>
  </g>
</g>
<g class="ldl-layer" transform="matrix(0.00333027, -0.349812, -0.35561, -0.00346893, 621.517, 358.479)">
  <g class="ldl-ani" style="transform-origin: 233.822px 255.302px 0px; opacity: 1; animation: 1s linear 0s infinite normal forwards running damage-c98c902f-c20c-4a9f-b605-a3c45a3b51b2;">
    <g>
      <g class="ldl-layer" transform="matrix(1, 0, 0, 1, 0, 0)">
          <g class="ldl-ani">
            <g style="user-select: auto; perspective-origin: 255.992px 255.992px;">
              <g class="ldl-layer">
                <g class="ldl-ani">
                  <path d="m66.727 367.787-6.024 6.024c-7.143 7.144-7.143 18.766 0 25.909l32.52 32.52c3.46 3.46 8.061 5.365 12.954 5.365s9.494-1.905 12.954-5.365l6.024-6.024c3.46-3.461 5.366-8.062 5.366-12.954 0-4.894-1.906-9.494-5.366-12.953l-32.52-32.521c-7.144-7.143-18.766-7.142-25.908-.001zm48.793 45.475c0 .513-.126 1.501-.973 2.347l-6.025 6.025c-.846.846-1.833.972-2.347.972s-1.501-.126-2.348-.973l-32.52-32.52c-.846-.846-.972-1.834-.972-2.347 0-.514.126-1.502.972-2.348l6.024-6.024c.647-.647 1.497-.971 2.348-.971.85 0 1.7.323 2.347.97l32.52 32.521c.848.847.974 1.834.974 2.348z" style="perspective-origin: 255.992px 255.992px;"></path>
                </g>
              </g>
              <g class="ldl-layer">
                <g class="ldl-ani">
                  <path d="m122.859 332.868c.846-.846 1.833-.972 2.347-.972s1.501.126 2.347.972l2.985 2.985c2.929 2.93 7.678 2.929 10.606.001 2.929-2.929 2.93-7.678.001-10.606l-2.985-2.986c-3.46-3.46-8.061-5.365-12.954-5.365-4.894 0-9.494 1.905-12.954 5.365l-6.024 6.024c-3.46 3.46-5.367 8.061-5.367 12.954s1.906 9.494 5.366 12.954l32.52 32.519c3.46 3.461 8.061 5.366 12.954 5.366s9.494-1.905 12.954-5.365l6.025-6.024c7.142-7.143 7.142-18.765-.001-25.908l-3.875-3.874c-2.929-2.928-7.678-2.929-10.606.001-2.929 2.929-2.928 7.678.001 10.606l3.874 3.873c1.294 1.295 1.294 3.401.001 4.695l-6.025 6.023c-.846.847-1.834.973-2.348.973-.513 0-1.501-.126-2.347-.973l-32.521-32.52c-.846-.846-.972-1.833-.972-2.347s.126-1.501.973-2.347z" style="perspective-origin: 255.992px 255.992px;"></path>
                </g>
              </g>
              <g class="ldl-layer">
                <g class="ldl-ani">
                  <path d="m181.04 413.504.217-.237c2.797-3.055 2.588-7.799-.466-10.596-3.055-2.798-7.799-2.59-10.597.467l-.217.237c-2.797 3.055-2.588 7.799.466 10.596 1.439 1.318 3.254 1.969 5.063 1.969 2.032-.001 4.055-.82 5.534-2.436z" style="perspective-origin: 255.992px 255.992px;">
                  </path>
              </g>
            </g>
            <g class="ldl-layer">
              <g class="ldl-ani">
              <path d="m136.44 436.762-.217.237c-2.797 3.055-2.588 7.799.466 10.596 1.439 1.318 3.254 1.969 5.063 1.969 2.03 0 4.054-.819 5.533-2.436l.217-.237c2.797-3.055 2.588-7.799-.466-10.596-3.055-2.798-7.799-2.59-10.596.467z" style="perspective-origin: 255.992px 255.992px;">
              </path>
            </g>
            </g>
              <g class="ldl-layer">
                <g class="ldl-ani">
                <path d="m160.184 427.167c-2.784 3.066-2.556 7.81.511 10.594l.223.202c1.437 1.305 3.241 1.947 5.039 1.947 2.041 0 4.075-.828 5.555-2.459 2.784-3.066 2.556-7.81-.511-10.594l-.223-.202c-3.067-2.784-7.81-2.555-10.594.512z" style="perspective-origin: 255.992px 255.992px;">
                </path>
              </g>
            </g>
              <g class="ldl-layer">
                <g class="ldl-ani">
                <path d="m508.201 39.608-17.206-17.206c-3.313-3.312-8.171-4.569-12.673-3.284l-23.77 6.789c-3.983 1.138-6.29 5.289-5.152 9.271 1.137 3.983 5.291 6.287 9.271 5.152l22.587-6.451 14.365 14.364-18.054 9.896c-5.081 2.785-9.456 6.52-13.003 11.099l-20.35 26.262c-13.045-6.22-24.712-.04-30.431 4.122l-21.635-21.636 10.325-21.607 21.323-6.089c3.983-1.138 6.29-5.288 5.152-9.271s-5.288-6.289-9.271-5.152l-22.229 6.348c-3.555 1.016-6.508 3.511-8.103 6.848l-11.368 23.791c-1.03 2.155-1.416 4.498-1.201 6.774l-148.323 142.715c-6.455-8.608-9.457-16.862-8.909-24.595.625-8.803 5.762-17.333 15.27-25.354 6.139-5.179 8.142-13.362 5.104-20.849-3.044-7.504-10.198-11.988-18.231-11.422-15.107 1.063-29.474 8.308-42.7 21.533-14.873 14.873-21.714 32.246-27.751 47.573-8.598 21.832-15.389 39.075-41.996 44.424-30.471 6.124-52.623 15.135-69.714 28.358-3.276 2.534-3.877 7.245-1.343 10.521 1.478 1.91 3.695 2.911 5.938 2.91 1.603 0 3.218-.512 4.584-1.568 15.404-11.917 34.985-19.786 63.491-25.517 34.614-6.957 43.959-30.686 52.996-53.632 5.77-14.649 11.735-29.797 24.401-42.463 10.597-10.597 21.749-16.376 33.146-17.178 2.058-.143 2.937 1.253 3.28 2.099.339.836.676 2.434-.877 3.744-12.541 10.579-19.65 22.943-20.56 35.757-.846 11.923 3.531 24.051 12.996 36.121l-54.456 52.397c-2.52 2.424-3.925 5.685-3.959 9.181-.034 3.495 1.31 6.781 3.781 9.252l26.359 26.359c2.441 2.441 5.677 3.78 9.125 3.78h.129c3.496-.034 6.755-1.44 9.178-3.959l11.818-12.282c11.256 16.782 30.228 28.283 54.395 16.255 2.188-1.092 3.581.169 4.217 1.018.735.98 1.299 2.487-.192 4.105-.3.326-.613.65-.938.977-6.753 6.753-17.531 11.679-27.953 16.443-10.921 4.991-21.236 9.706-28.326 16.797-6.869 6.868-8.386 17.179-10.144 29.116-2.435 16.544-5.466 37.133-24.045 55.711-15.605 15.606-38.075 22.63-63.275 19.778-25.833-2.924-51.329-15.802-71.79-36.264-17.933-17.933-30.243-40.33-34.664-63.068-4.265-21.934-1.063-43.223 9.016-59.947 2.138-3.548.995-8.157-2.553-10.295-3.549-2.138-8.157-.995-10.295 2.553-11.999 19.914-15.867 44.97-10.893 70.556 5.058 26.012 18.468 50.498 38.782 70.813 22.853 22.853 51.516 37.257 80.71 40.561 4.262.482 8.462.722 12.588.722 24.748 0 46.779-8.597 62.979-24.797 22.09-22.089 25.667-46.39 28.279-64.134 1.369-9.303 2.552-17.337 5.91-20.695 5.178-5.178 14.299-9.347 23.955-13.76 11.631-5.317 23.659-10.814 32.324-19.479.472-.472.925-.944 1.359-1.415 6.048-6.558 6.526-16.13 1.162-23.277-5.418-7.218-14.832-9.457-22.897-5.443-9.597 4.777-17.922 4.533-25.447-.737-5.29-3.706-9.143-9.111-11.546-13.229l183.866-191.089c2.661-.109 5.301-1.035 7.515-2.823 6.048-4.881 11.752-5.893 16.953-3.004 5.482 3.044 12.537 1.57 16.409-3.43l21.405-27.622c2.28-2.943 5.091-5.343 8.356-7.132l20.498-11.236c3.598-1.972 5.994-5.432 6.575-9.492.583-4.065-.748-8.059-3.649-10.962zm-107.554 68.088-13.892 14.438-15.947-15.947 14.438-13.893zm-37.138 38.597-16.86-16.86 13.347-12.842 16.356 16.355zm-23.245 24.157-17.773-17.773 13.347-12.842 17.268 17.269zm-23.244 24.158-18.686-18.686 13.347-12.842 18.181 18.182zm-23.245 24.158-19.599-19.599 13.347-12.842 19.095 19.095zm-23.245 24.158-20.512-20.512 13.347-12.842 20.008 20.008zm-23.245 24.158-21.426-21.425 13.347-12.842 20.921 20.921zm-23.245 24.159-22.339-22.339 13.347-12.843 21.834 21.834zm-25.636 26.642-23.345-23.346 15.831-15.232 22.747 22.747z" style="perspective-origin: 255.992px 255.992px;">

              </path>
              </g>
            </g>
          </g>
        </g>
      </g>
    </g>
  </g>
</g>
  <style id="damage-2d759c8b-a51f-4092-ba8b-9d348e2c8a36" data-anikit="">@keyframes damage-2d759c8b-a51f-4092-ba8b-9d348e2c8a36
{
  0% {
    animation-timing-function: cubic-bezier(0.1916,0.3481,0.5313,2.0622);
    opacity: 1;
  }
  21% {
    animation-timing-function: cubic-bezier(0.0461,0.1237,0.4559,1.8579);
    opacity: 0.42200000000000004;
  }
  29% {
    animation-timing-function: cubic-bezier(0.0468,0.1254,0.4564,1.8559);
    opacity: 1.462;
  }
  37% {
    animation-timing-function: cubic-bezier(0.0479,0.1283,0.457,1.856);
    opacity: 0.63;
  }
  45% {
    animation-timing-function: cubic-bezier(0.0487,0.1306,0.457,1.8506);
    opacity: 1.296;
  }
  53% {
    animation-timing-function: cubic-bezier(0.0515,0.1383,0.4591,1.8571);
    opacity: 0.763;
  }
  61% {
    animation-timing-function: cubic-bezier(0.0556,0.1484,0.4608,1.846);
    opacity: 1.189;
  }
  69% {
    animation-timing-function: cubic-bezier(0.0595,0.1602,0.4632,1.8456);
    opacity: 0.848;
  }
  77% {
    animation-timing-function: cubic-bezier(0.0689,0.1849,0.4698,1.8391);
    opacity: 1.121;
  }
  85% {
    animation-timing-function: cubic-bezier(0.0794,0.2133,0.4765,1.8226);
    opacity: 0.903;
  }
  93% {
    animation-timing-function: cubic-bezier(0.1486,0.2692,0.2335,0.855);
    opacity: 1.078;
  }
  100% {
    opacity: 0.893;
  }
}</style>
<style id="damage-c98c902f-c20c-4a9f-b605-a3c45a3b51b2" data-anikit="">@keyframes damage-c98c902f-c20c-4a9f-b605-a3c45a3b51b2
{
  0% {
    animation-timing-function: cubic-bezier(0.1916,0.3481,0.5313,2.0622);
    opacity: 1;
  }
  21% {
    animation-timing-function: cubic-bezier(0.0461,0.1237,0.4559,1.8579);
    opacity: 0.42200000000000004;
  }
  29% {
    animation-timing-function: cubic-bezier(0.0468,0.1254,0.4564,1.8559);
    opacity: 1.462;
  }
  37% {
    animation-timing-function: cubic-bezier(0.0479,0.1283,0.457,1.856);
    opacity: 0.63;
  }
  45% {
    animation-timing-function: cubic-bezier(0.0487,0.1306,0.457,1.8506);
    opacity: 1.296;
  }
  53% {
    animation-timing-function: cubic-bezier(0.0515,0.1383,0.4591,1.8571);
    opacity: 0.763;
  }
  61% {
    animation-timing-function: cubic-bezier(0.0556,0.1484,0.4608,1.846);
    opacity: 1.189;
  }
  69% {
    animation-timing-function: cubic-bezier(0.0595,0.1602,0.4632,1.8456);
    opacity: 0.848;
  }
  77% {
    animation-timing-function: cubic-bezier(0.0689,0.1849,0.4698,1.8391);
    opacity: 1.121;
  }
  85% {
    animation-timing-function: cubic-bezier(0.0794,0.2133,0.4765,1.8226);
    opacity: 0.903;
  }
  93% {
    animation-timing-function: cubic-bezier(0.1486,0.2692,0.2335,0.855);
    opacity: 1.078;
  }
  100% {
    opacity: 0.893;
  }
}</style>
</svg>